<mxfile host="www.draw.io" modified="2020-02-01T01:31:52.450Z" agent="Mozilla/5.0 (Windows NT 10.0; Win64; x64) AppleWebKit/537.36 (KHTML, like Gecko) Chrome/79.0.3945.130 Safari/537.36" etag="8nv-caOrWFQuJjD4A_MO" version="12.6.2" type="github">
  <diagram name="Page-1" id="c7558073-3199-34d8-9f00-42111426c3f3">
    <mxGraphModel dx="1102" dy="614" grid="1" gridSize="10" guides="1" tooltips="1" connect="1" arrows="1" fold="1" page="1" pageScale="1" pageWidth="826" pageHeight="1169" background="#ffffff" math="0" shadow="0">
      <root>
        <mxCell id="0"/>
        <mxCell id="1" parent="0"/>
        <mxCell id="2" value="&lt;p style=&quot;margin: 0px ; margin-top: 4px ; text-align: center ; text-decoration: underline&quot;&gt;&lt;strong&gt;Process 1&lt;br&gt;&lt;/strong&gt;&lt;/p&gt;&lt;hr&gt;&lt;p style=&quot;margin: 0px ; margin-left: 8px&quot;&gt;Rebuild database&lt;/p&gt;" style="verticalAlign=middle;align=center;overflow=fill;fontSize=12;fontFamily=Helvetica;html=1;rounded=1;fontStyle=1;strokeWidth=3;fillColor=#E6FFCC" parent="1" vertex="1">
          <mxGeometry x="325" y="236" width="110" height="90" as="geometry"/>
        </mxCell>
        <mxCell id="3" value="Administrator" style="whiteSpace=wrap;align=center;verticalAlign=middle;fontStyle=1;strokeWidth=3;fillColor=#FFFFCC" parent="1" vertex="1">
          <mxGeometry x="80" y="251" width="90" height="60" as="geometry"/>
        </mxCell>
        <mxCell id="GCj06kqIi2PVKW-XeLto-104" value="a2hosting &lt;br&gt;server file&lt;br&gt;&amp;nbsp;system&lt;br&gt;" style="shape=dataStorage;whiteSpace=wrap;html=1;" vertex="1" parent="1">
          <mxGeometry x="80" y="40" width="100" height="80" as="geometry"/>
        </mxCell>
        <mxCell id="GCj06kqIi2PVKW-XeLto-106" value="" style="endArrow=classic;html=1;exitX=1;exitY=0.5;exitDx=0;exitDy=0;entryX=0;entryY=0.5;entryDx=0;entryDy=0;" edge="1" parent="1" source="3" target="2">
          <mxGeometry width="50" height="50" relative="1" as="geometry">
            <mxPoint x="230" y="300" as="sourcePoint"/>
            <mxPoint x="280" y="250" as="targetPoint"/>
          </mxGeometry>
        </mxCell>
        <mxCell id="GCj06kqIi2PVKW-XeLto-107" value="Edenbridges&lt;br&gt;office server" style="shape=dataStorage;whiteSpace=wrap;html=1;" vertex="1" parent="1">
          <mxGeometry x="330" y="40" width="100" height="80" as="geometry"/>
        </mxCell>
        <mxCell id="GCj06kqIi2PVKW-XeLto-108" value="Altis&#39;s backup&lt;br&gt;storage" style="shape=dataStorage;whiteSpace=wrap;html=1;" vertex="1" parent="1">
          <mxGeometry x="560" y="40" width="100" height="80" as="geometry"/>
        </mxCell>
        <mxCell id="GCj06kqIi2PVKW-XeLto-109" value="" style="endArrow=classic;html=1;exitX=0.5;exitY=1;exitDx=0;exitDy=0;entryX=0;entryY=0;entryDx=0;entryDy=0;" edge="1" parent="1" source="GCj06kqIi2PVKW-XeLto-104" target="2">
          <mxGeometry width="50" height="50" relative="1" as="geometry">
            <mxPoint x="110" y="210" as="sourcePoint"/>
            <mxPoint x="160" y="160" as="targetPoint"/>
            <Array as="points">
              <mxPoint x="130" y="200"/>
              <mxPoint x="200" y="200"/>
              <mxPoint x="325" y="200"/>
            </Array>
          </mxGeometry>
        </mxCell>
        <mxCell id="GCj06kqIi2PVKW-XeLto-110" value="" style="endArrow=classic;html=1;exitX=0.5;exitY=1;exitDx=0;exitDy=0;entryX=0.5;entryY=0;entryDx=0;entryDy=0;" edge="1" parent="1" source="GCj06kqIi2PVKW-XeLto-107" target="2">
          <mxGeometry width="50" height="50" relative="1" as="geometry">
            <mxPoint x="390" y="170" as="sourcePoint"/>
            <mxPoint x="370" y="190" as="targetPoint"/>
          </mxGeometry>
        </mxCell>
        <mxCell id="GCj06kqIi2PVKW-XeLto-111" value="" style="endArrow=classic;html=1;exitX=0.5;exitY=1;exitDx=0;exitDy=0;entryX=1;entryY=0;entryDx=0;entryDy=0;" edge="1" parent="1" source="GCj06kqIi2PVKW-XeLto-108" target="2">
          <mxGeometry width="50" height="50" relative="1" as="geometry">
            <mxPoint x="590" y="200" as="sourcePoint"/>
            <mxPoint x="640" y="150" as="targetPoint"/>
            <Array as="points">
              <mxPoint x="610" y="200"/>
              <mxPoint x="470" y="200"/>
              <mxPoint x="435" y="200"/>
            </Array>
          </mxGeometry>
        </mxCell>
        <mxCell id="GCj06kqIi2PVKW-XeLto-112" value="a2hosting &lt;br&gt;server file&lt;br&gt;&amp;nbsp;system&lt;br&gt;" style="shape=dataStorage;whiteSpace=wrap;html=1;" vertex="1" parent="1">
          <mxGeometry x="330" y="450" width="100" height="80" as="geometry"/>
        </mxCell>
        <mxCell id="GCj06kqIi2PVKW-XeLto-113" value="" style="endArrow=classic;html=1;exitX=0.5;exitY=1;exitDx=0;exitDy=0;entryX=0.5;entryY=0;entryDx=0;entryDy=0;" edge="1" parent="1" source="2" target="GCj06kqIi2PVKW-XeLto-112">
          <mxGeometry width="50" height="50" relative="1" as="geometry">
            <mxPoint x="360" y="400" as="sourcePoint"/>
            <mxPoint x="410" y="350" as="targetPoint"/>
          </mxGeometry>
        </mxCell>
        <mxCell id="GCj06kqIi2PVKW-XeLto-114" value="SQL file retrieved from storage" style="text;html=1;strokeColor=none;fillColor=none;align=center;verticalAlign=middle;whiteSpace=wrap;rounded=0;" vertex="1" parent="1">
          <mxGeometry x="150" y="170" width="160" height="20" as="geometry"/>
        </mxCell>
        <mxCell id="GCj06kqIi2PVKW-XeLto-120" value="Database is rebuilt with SQL file and stored in the web host&#39;s file system" style="text;html=1;strokeColor=none;fillColor=none;align=center;verticalAlign=middle;whiteSpace=wrap;rounded=0;" vertex="1" parent="1">
          <mxGeometry x="385" y="370" width="175" height="20" as="geometry"/>
        </mxCell>
        <mxCell id="GCj06kqIi2PVKW-XeLto-121" value="SQL file retrieved from storage" style="text;html=1;strokeColor=none;fillColor=none;align=center;verticalAlign=middle;whiteSpace=wrap;rounded=0;" vertex="1" parent="1">
          <mxGeometry x="435" y="170" width="160" height="20" as="geometry"/>
        </mxCell>
        <mxCell id="GCj06kqIi2PVKW-XeLto-122" value="SQL file retrieved from storage" style="text;html=1;strokeColor=none;fillColor=none;align=center;verticalAlign=middle;whiteSpace=wrap;rounded=0;" vertex="1" parent="1">
          <mxGeometry x="370" y="130" width="160" height="20" as="geometry"/>
        </mxCell>
        <mxCell id="GCj06kqIi2PVKW-XeLto-123" value="Administrator&lt;br&gt;initiates the restoration process" style="text;html=1;strokeColor=none;fillColor=none;align=center;verticalAlign=middle;whiteSpace=wrap;rounded=0;" vertex="1" parent="1">
          <mxGeometry x="180" y="240" width="130" height="20" as="geometry"/>
        </mxCell>
        <mxCell id="GCj06kqIi2PVKW-XeLto-125" value="" style="endArrow=none;html=1;strokeWidth=3;fillColor=#f8cecc;strokeColor=#b85450;" edge="1" parent="1">
          <mxGeometry width="50" height="50" relative="1" as="geometry">
            <mxPoint x="310" y="360" as="sourcePoint"/>
            <mxPoint x="310" y="210" as="targetPoint"/>
          </mxGeometry>
        </mxCell>
        <mxCell id="GCj06kqIi2PVKW-XeLto-127" value="&lt;font color=&quot;#ff0000&quot; size=&quot;1&quot;&gt;&lt;b style=&quot;font-size: 15px&quot;&gt;H&lt;/b&gt;&lt;/font&gt;" style="text;html=1;align=center;verticalAlign=middle;whiteSpace=wrap;rounded=0;" vertex="1" parent="1">
          <mxGeometry x="280" y="326" width="40" height="20" as="geometry"/>
        </mxCell>
      </root>
    </mxGraphModel>
  </diagram>
</mxfile>
